<mxfile host="app.diagrams.net" agent="Mozilla/5.0 (Windows NT 10.0; Win64; x64) AppleWebKit/537.36 (KHTML, like Gecko) Chrome/140.0.0.0 Safari/537.36" version="28.2.3" pages="7">
  <diagram name="Product Catalog (Danh mục sản phẩm)" id="tiHJGT0VATsmiU_rNQDZ">
    <mxGraphModel dx="1426" dy="777" grid="1" gridSize="10" guides="1" tooltips="1" connect="1" arrows="1" fold="1" page="1" pageScale="1" pageWidth="850" pageHeight="1100" math="0" shadow="0">
      <root>
        <mxCell id="0" />
        <mxCell id="1" parent="0" />
        <mxCell id="SFBnfxds8klgQk6XGzuZ-7" style="edgeStyle=orthogonalEdgeStyle;rounded=0;orthogonalLoop=1;jettySize=auto;html=1;entryX=0;entryY=0.5;entryDx=0;entryDy=0;" parent="1" source="SFBnfxds8klgQk6XGzuZ-2" target="SFBnfxds8klgQk6XGzuZ-4" edge="1">
          <mxGeometry relative="1" as="geometry">
            <Array as="points" />
          </mxGeometry>
        </mxCell>
        <mxCell id="SFBnfxds8klgQk6XGzuZ-11" style="rounded=0;orthogonalLoop=1;jettySize=auto;html=1;entryX=0;entryY=0;entryDx=0;entryDy=0;" parent="1" source="SFBnfxds8klgQk6XGzuZ-2" target="SFBnfxds8klgQk6XGzuZ-10" edge="1">
          <mxGeometry relative="1" as="geometry" />
        </mxCell>
        <mxCell id="SFBnfxds8klgQk6XGzuZ-2" value="Người mua&amp;nbsp;" style="shape=umlActor;verticalLabelPosition=bottom;verticalAlign=top;html=1;outlineConnect=0;" parent="1" vertex="1">
          <mxGeometry x="130" y="190" width="30" height="60" as="geometry" />
        </mxCell>
        <mxCell id="SFBnfxds8klgQk6XGzuZ-15" style="edgeStyle=orthogonalEdgeStyle;rounded=0;orthogonalLoop=1;jettySize=auto;html=1;entryX=0;entryY=0.5;entryDx=0;entryDy=0;" parent="1" source="SFBnfxds8klgQk6XGzuZ-3" target="SFBnfxds8klgQk6XGzuZ-14" edge="1">
          <mxGeometry relative="1" as="geometry" />
        </mxCell>
        <mxCell id="SFBnfxds8klgQk6XGzuZ-3" value="Admin" style="shape=umlActor;verticalLabelPosition=bottom;verticalAlign=top;html=1;outlineConnect=0;" parent="1" vertex="1">
          <mxGeometry x="130" y="520" width="30" height="60" as="geometry" />
        </mxCell>
        <mxCell id="SFBnfxds8klgQk6XGzuZ-4" value="Xem danh sách sản phẩm" style="ellipse;whiteSpace=wrap;html=1;" parent="1" vertex="1">
          <mxGeometry x="305" y="180" width="120" height="80" as="geometry" />
        </mxCell>
        <mxCell id="SFBnfxds8klgQk6XGzuZ-5" value="Lọc sản phẩm" style="ellipse;whiteSpace=wrap;html=1;" parent="1" vertex="1">
          <mxGeometry x="580" y="100" width="120" height="80" as="geometry" />
        </mxCell>
        <mxCell id="SFBnfxds8klgQk6XGzuZ-6" value="Sắp xếp sản phẩm&lt;div&gt;(Phân loại sản phẩm)&lt;/div&gt;" style="ellipse;whiteSpace=wrap;html=1;" parent="1" vertex="1">
          <mxGeometry x="580" y="270" width="120" height="80" as="geometry" />
        </mxCell>
        <mxCell id="SFBnfxds8klgQk6XGzuZ-8" value="&amp;lt;&amp;lt;extend&amp;gt;&amp;gt;" style="html=1;verticalAlign=bottom;labelBackgroundColor=none;endArrow=open;endFill=0;dashed=1;rounded=0;entryX=0;entryY=0.5;entryDx=0;entryDy=0;exitX=0.985;exitY=0.423;exitDx=0;exitDy=0;exitPerimeter=0;" parent="1" source="SFBnfxds8klgQk6XGzuZ-4" target="SFBnfxds8klgQk6XGzuZ-5" edge="1">
          <mxGeometry x="-0.2406" y="6" width="160" relative="1" as="geometry">
            <mxPoint x="440" y="200" as="sourcePoint" />
            <mxPoint x="590" y="210" as="targetPoint" />
            <mxPoint as="offset" />
          </mxGeometry>
        </mxCell>
        <mxCell id="SFBnfxds8klgQk6XGzuZ-9" value="&amp;lt;&amp;lt;extend&amp;gt;&amp;gt;" style="html=1;verticalAlign=bottom;labelBackgroundColor=none;endArrow=open;endFill=0;dashed=1;rounded=0;exitX=0.953;exitY=0.768;exitDx=0;exitDy=0;exitPerimeter=0;entryX=0;entryY=0.5;entryDx=0;entryDy=0;" parent="1" source="SFBnfxds8klgQk6XGzuZ-4" target="SFBnfxds8klgQk6XGzuZ-6" edge="1">
          <mxGeometry x="0.083" y="9" width="160" relative="1" as="geometry">
            <mxPoint x="410" y="260" as="sourcePoint" />
            <mxPoint x="570" y="260" as="targetPoint" />
            <mxPoint as="offset" />
          </mxGeometry>
        </mxCell>
        <mxCell id="SFBnfxds8klgQk6XGzuZ-10" value="Xem chi tiết sản phẩm" style="ellipse;whiteSpace=wrap;html=1;" parent="1" vertex="1">
          <mxGeometry x="305" y="300" width="120" height="80" as="geometry" />
        </mxCell>
        <mxCell id="SFBnfxds8klgQk6XGzuZ-14" value="Quản lý sản phẩm" style="ellipse;whiteSpace=wrap;html=1;" parent="1" vertex="1">
          <mxGeometry x="305" y="510" width="120" height="80" as="geometry" />
        </mxCell>
        <mxCell id="SFBnfxds8klgQk6XGzuZ-17" value="Thêm sản phẩm" style="ellipse;whiteSpace=wrap;html=1;" parent="1" vertex="1">
          <mxGeometry x="580" y="410" width="120" height="80" as="geometry" />
        </mxCell>
        <mxCell id="SFBnfxds8klgQk6XGzuZ-18" value="Tạo sản phẩm" style="ellipse;whiteSpace=wrap;html=1;" parent="1" vertex="1">
          <mxGeometry x="580" y="650" width="120" height="80" as="geometry" />
        </mxCell>
        <mxCell id="SFBnfxds8klgQk6XGzuZ-19" value="Xóa sản phẩm" style="ellipse;whiteSpace=wrap;html=1;" parent="1" vertex="1">
          <mxGeometry x="580" y="530" width="120" height="80" as="geometry" />
        </mxCell>
        <mxCell id="SFBnfxds8klgQk6XGzuZ-21" value="&amp;lt;&amp;lt;include&amp;gt;&amp;gt;" style="html=1;verticalAlign=bottom;labelBackgroundColor=none;endArrow=open;endFill=0;dashed=1;rounded=0;exitX=0.977;exitY=0.34;exitDx=0;exitDy=0;entryX=0;entryY=0.5;entryDx=0;entryDy=0;exitPerimeter=0;" parent="1" source="SFBnfxds8klgQk6XGzuZ-14" target="SFBnfxds8klgQk6XGzuZ-17" edge="1">
          <mxGeometry width="160" relative="1" as="geometry">
            <mxPoint x="430" y="550" as="sourcePoint" />
            <mxPoint x="590" y="550" as="targetPoint" />
          </mxGeometry>
        </mxCell>
        <mxCell id="SFBnfxds8klgQk6XGzuZ-22" value="&amp;lt;&amp;lt;include&amp;gt;&amp;gt;" style="html=1;verticalAlign=bottom;labelBackgroundColor=none;endArrow=open;endFill=0;dashed=1;rounded=0;exitX=1;exitY=0.5;exitDx=0;exitDy=0;entryX=0;entryY=0.5;entryDx=0;entryDy=0;" parent="1" source="SFBnfxds8klgQk6XGzuZ-14" target="SFBnfxds8klgQk6XGzuZ-19" edge="1">
          <mxGeometry width="160" relative="1" as="geometry">
            <mxPoint x="270" y="510" as="sourcePoint" />
            <mxPoint x="430" y="510" as="targetPoint" />
          </mxGeometry>
        </mxCell>
        <mxCell id="SFBnfxds8klgQk6XGzuZ-23" value="&amp;lt;&amp;lt;include&amp;gt;&amp;gt;" style="html=1;verticalAlign=bottom;labelBackgroundColor=none;endArrow=open;endFill=0;dashed=1;rounded=0;exitX=0.97;exitY=0.72;exitDx=0;exitDy=0;exitPerimeter=0;entryX=0.012;entryY=0.33;entryDx=0;entryDy=0;entryPerimeter=0;" parent="1" source="SFBnfxds8klgQk6XGzuZ-14" target="SFBnfxds8klgQk6XGzuZ-18" edge="1">
          <mxGeometry width="160" relative="1" as="geometry">
            <mxPoint x="470" y="640" as="sourcePoint" />
            <mxPoint x="630" y="640" as="targetPoint" />
          </mxGeometry>
        </mxCell>
        <mxCell id="SFBnfxds8klgQk6XGzuZ-24" value="Gán sản phẩm vào kho" style="ellipse;whiteSpace=wrap;html=1;" parent="1" vertex="1">
          <mxGeometry x="305" y="680" width="120" height="80" as="geometry" />
        </mxCell>
        <mxCell id="SFBnfxds8klgQk6XGzuZ-25" style="rounded=0;orthogonalLoop=1;jettySize=auto;html=1;entryX=0;entryY=0;entryDx=0;entryDy=0;" parent="1" source="SFBnfxds8klgQk6XGzuZ-3" target="SFBnfxds8klgQk6XGzuZ-24" edge="1">
          <mxGeometry relative="1" as="geometry" />
        </mxCell>
        <mxCell id="KXP3_602gO15tonNOMow-1" value="" style="swimlane;startSize=0;" parent="1" vertex="1">
          <mxGeometry x="220" y="100" width="520" height="680" as="geometry" />
        </mxCell>
      </root>
    </mxGraphModel>
  </diagram>
  <diagram id="ZhODJidG1cRSxVTfaena" name="Shopping Cart (Giỏ hàng)">
    <mxGraphModel dx="576" dy="777" grid="1" gridSize="10" guides="1" tooltips="1" connect="1" arrows="1" fold="1" page="1" pageScale="1" pageWidth="850" pageHeight="1100" math="0" shadow="0">
      <root>
        <mxCell id="0" />
        <mxCell id="1" parent="0" />
        <mxCell id="0jOt72ynRNuzMFwaVO3d-13" style="rounded=0;orthogonalLoop=1;jettySize=auto;html=1;entryX=0;entryY=0.5;entryDx=0;entryDy=0;" parent="1" source="0jOt72ynRNuzMFwaVO3d-3" target="0jOt72ynRNuzMFwaVO3d-6" edge="1">
          <mxGeometry relative="1" as="geometry" />
        </mxCell>
        <mxCell id="0jOt72ynRNuzMFwaVO3d-14" style="rounded=0;orthogonalLoop=1;jettySize=auto;html=1;entryX=0;entryY=0.5;entryDx=0;entryDy=0;" parent="1" source="0jOt72ynRNuzMFwaVO3d-3" target="0jOt72ynRNuzMFwaVO3d-7" edge="1">
          <mxGeometry relative="1" as="geometry" />
        </mxCell>
        <mxCell id="0jOt72ynRNuzMFwaVO3d-15" style="rounded=0;orthogonalLoop=1;jettySize=auto;html=1;entryX=0;entryY=0.5;entryDx=0;entryDy=0;" parent="1" source="0jOt72ynRNuzMFwaVO3d-3" target="0jOt72ynRNuzMFwaVO3d-8" edge="1">
          <mxGeometry relative="1" as="geometry" />
        </mxCell>
        <mxCell id="0jOt72ynRNuzMFwaVO3d-16" style="rounded=0;orthogonalLoop=1;jettySize=auto;html=1;entryX=0;entryY=0.5;entryDx=0;entryDy=0;" parent="1" source="0jOt72ynRNuzMFwaVO3d-3" target="0jOt72ynRNuzMFwaVO3d-9" edge="1">
          <mxGeometry relative="1" as="geometry" />
        </mxCell>
        <mxCell id="0jOt72ynRNuzMFwaVO3d-3" value="Người mua" style="shape=umlActor;verticalLabelPosition=bottom;verticalAlign=top;html=1;outlineConnect=0;" parent="1" vertex="1">
          <mxGeometry x="1130" y="270" width="30" height="60" as="geometry" />
        </mxCell>
        <mxCell id="0jOt72ynRNuzMFwaVO3d-19" style="rounded=0;orthogonalLoop=1;jettySize=auto;html=1;entryX=0;entryY=0.5;entryDx=0;entryDy=0;" parent="1" source="0jOt72ynRNuzMFwaVO3d-4" target="0jOt72ynRNuzMFwaVO3d-17" edge="1">
          <mxGeometry relative="1" as="geometry" />
        </mxCell>
        <mxCell id="0jOt72ynRNuzMFwaVO3d-20" style="rounded=0;orthogonalLoop=1;jettySize=auto;html=1;entryX=0;entryY=0.5;entryDx=0;entryDy=0;" parent="1" source="0jOt72ynRNuzMFwaVO3d-4" target="0jOt72ynRNuzMFwaVO3d-18" edge="1">
          <mxGeometry relative="1" as="geometry" />
        </mxCell>
        <mxCell id="0jOt72ynRNuzMFwaVO3d-4" value="Admin" style="shape=umlActor;verticalLabelPosition=bottom;verticalAlign=top;html=1;outlineConnect=0;" parent="1" vertex="1">
          <mxGeometry x="1130" y="700" width="30" height="60" as="geometry" />
        </mxCell>
        <mxCell id="0jOt72ynRNuzMFwaVO3d-5" value="Thêm sản phẩm vào giỏ hàng" style="ellipse;whiteSpace=wrap;html=1;" parent="1" vertex="1">
          <mxGeometry x="1360" y="70" width="120" height="80" as="geometry" />
        </mxCell>
        <mxCell id="0jOt72ynRNuzMFwaVO3d-6" value="Xem giỏ hàng" style="ellipse;whiteSpace=wrap;html=1;" parent="1" vertex="1">
          <mxGeometry x="1360" y="180" width="120" height="80" as="geometry" />
        </mxCell>
        <mxCell id="0jOt72ynRNuzMFwaVO3d-7" value="Cập nhật số lượng sản phẩm trong giỏ" style="ellipse;whiteSpace=wrap;html=1;" parent="1" vertex="1">
          <mxGeometry x="1360" y="290" width="120" height="80" as="geometry" />
        </mxCell>
        <mxCell id="0jOt72ynRNuzMFwaVO3d-8" value="Xóa sản phẩm khỏi giỏ hàng" style="ellipse;whiteSpace=wrap;html=1;" parent="1" vertex="1">
          <mxGeometry x="1360" y="400" width="120" height="80" as="geometry" />
        </mxCell>
        <mxCell id="0jOt72ynRNuzMFwaVO3d-9" value="Thanh toán giỏ hàng" style="ellipse;whiteSpace=wrap;html=1;" parent="1" vertex="1">
          <mxGeometry x="1360" y="510" width="120" height="80" as="geometry" />
        </mxCell>
        <mxCell id="0jOt72ynRNuzMFwaVO3d-10" value="Cập nhật sản phẩm với kho&amp;nbsp;&lt;br&gt;(Giảm số lượng tồn kho)" style="ellipse;whiteSpace=wrap;html=1;" parent="1" vertex="1">
          <mxGeometry x="1610" y="470" width="120" height="80" as="geometry" />
        </mxCell>
        <mxCell id="0jOt72ynRNuzMFwaVO3d-11" value="&amp;lt;&amp;lt;include&amp;gt;&amp;gt;" style="html=1;verticalAlign=bottom;labelBackgroundColor=none;endArrow=open;endFill=0;dashed=1;rounded=0;exitX=1;exitY=0.5;exitDx=0;exitDy=0;entryX=0;entryY=0.5;entryDx=0;entryDy=0;" parent="1" source="0jOt72ynRNuzMFwaVO3d-9" target="0jOt72ynRNuzMFwaVO3d-10" edge="1">
          <mxGeometry width="160" relative="1" as="geometry">
            <mxPoint x="1510" y="550" as="sourcePoint" />
            <mxPoint x="1670" y="550" as="targetPoint" />
          </mxGeometry>
        </mxCell>
        <mxCell id="0jOt72ynRNuzMFwaVO3d-12" style="rounded=0;orthogonalLoop=1;jettySize=auto;html=1;entryX=0.002;entryY=0.371;entryDx=0;entryDy=0;entryPerimeter=0;" parent="1" source="0jOt72ynRNuzMFwaVO3d-3" target="0jOt72ynRNuzMFwaVO3d-5" edge="1">
          <mxGeometry relative="1" as="geometry" />
        </mxCell>
        <mxCell id="0jOt72ynRNuzMFwaVO3d-17" value="Xem tất cả giỏ hàng của người mua" style="ellipse;whiteSpace=wrap;html=1;" parent="1" vertex="1">
          <mxGeometry x="1360" y="650" width="120" height="80" as="geometry" />
        </mxCell>
        <mxCell id="0jOt72ynRNuzMFwaVO3d-18" value="Kích hoạt/Vô hiệu hóa giỏ hàng" style="ellipse;whiteSpace=wrap;html=1;" parent="1" vertex="1">
          <mxGeometry x="1360" y="750" width="120" height="80" as="geometry" />
        </mxCell>
        <mxCell id="WPilN_KcSFYJmMHDpI0d-1" value="" style="swimlane;startSize=0;" parent="1" vertex="1">
          <mxGeometry x="1230" y="60" width="540" height="790" as="geometry" />
        </mxCell>
      </root>
    </mxGraphModel>
  </diagram>
  <diagram id="7D3qRV37IJRvndy4nJqZ" name="Payment Process (Qui trình thanh toán)">
    <mxGraphModel dx="1426" dy="777" grid="1" gridSize="10" guides="1" tooltips="1" connect="1" arrows="1" fold="1" page="1" pageScale="1" pageWidth="850" pageHeight="1100" math="0" shadow="0">
      <root>
        <mxCell id="0" />
        <mxCell id="1" parent="0" />
        <mxCell id="0xQP9pTzNDraxgmJn8Np-9" style="rounded=0;orthogonalLoop=1;jettySize=auto;html=1;entryX=0.039;entryY=0.332;entryDx=0;entryDy=0;entryPerimeter=0;" parent="1" source="0xQP9pTzNDraxgmJn8Np-2" target="0xQP9pTzNDraxgmJn8Np-5" edge="1">
          <mxGeometry relative="1" as="geometry" />
        </mxCell>
        <mxCell id="0xQP9pTzNDraxgmJn8Np-2" value="Người mua" style="shape=umlActor;verticalLabelPosition=bottom;verticalAlign=top;html=1;outlineConnect=0;" parent="1" vertex="1">
          <mxGeometry x="770" y="150" width="30" height="60" as="geometry" />
        </mxCell>
        <mxCell id="0xQP9pTzNDraxgmJn8Np-4" value="Hệ thống" style="shape=umlActor;verticalLabelPosition=bottom;verticalAlign=top;html=1;outlineConnect=0;" parent="1" vertex="1">
          <mxGeometry x="770" y="270" width="30" height="60" as="geometry" />
        </mxCell>
        <mxCell id="0xQP9pTzNDraxgmJn8Np-5" value="Xử lý thanh toán" style="ellipse;whiteSpace=wrap;html=1;" parent="1" vertex="1">
          <mxGeometry x="950" y="210" width="120" height="80" as="geometry" />
        </mxCell>
        <mxCell id="0xQP9pTzNDraxgmJn8Np-6" value="Xác thực thông tin sản phầm" style="ellipse;whiteSpace=wrap;html=1;" parent="1" vertex="1">
          <mxGeometry x="1180" y="110" width="120" height="80" as="geometry" />
        </mxCell>
        <mxCell id="0xQP9pTzNDraxgmJn8Np-7" value="Xử lý giao dịch thanh toán" style="ellipse;whiteSpace=wrap;html=1;" parent="1" vertex="1">
          <mxGeometry x="1180" y="210" width="120" height="80" as="geometry" />
        </mxCell>
        <mxCell id="0xQP9pTzNDraxgmJn8Np-8" value="Gửi email thông báo" style="ellipse;whiteSpace=wrap;html=1;" parent="1" vertex="1">
          <mxGeometry x="1180" y="310" width="120" height="80" as="geometry" />
        </mxCell>
        <mxCell id="0xQP9pTzNDraxgmJn8Np-10" value="&amp;lt;&amp;lt;include&amp;gt;&amp;gt;" style="html=1;verticalAlign=bottom;labelBackgroundColor=none;endArrow=open;endFill=0;dashed=1;rounded=0;exitX=0.948;exitY=0.295;exitDx=0;exitDy=0;exitPerimeter=0;entryX=0;entryY=0.5;entryDx=0;entryDy=0;" parent="1" source="0xQP9pTzNDraxgmJn8Np-5" target="0xQP9pTzNDraxgmJn8Np-6" edge="1">
          <mxGeometry width="160" relative="1" as="geometry">
            <mxPoint x="1080" y="230" as="sourcePoint" />
            <mxPoint x="1180" y="149.5" as="targetPoint" />
          </mxGeometry>
        </mxCell>
        <mxCell id="0xQP9pTzNDraxgmJn8Np-11" value="&amp;lt;&amp;lt;include&amp;gt;&amp;gt;" style="html=1;verticalAlign=bottom;labelBackgroundColor=none;endArrow=open;endFill=0;dashed=1;rounded=0;entryX=0;entryY=0.5;entryDx=0;entryDy=0;" parent="1" target="0xQP9pTzNDraxgmJn8Np-7" edge="1">
          <mxGeometry width="160" relative="1" as="geometry">
            <mxPoint x="1070" y="250" as="sourcePoint" />
            <mxPoint x="1240" y="320" as="targetPoint" />
          </mxGeometry>
        </mxCell>
        <mxCell id="0xQP9pTzNDraxgmJn8Np-12" value="&amp;lt;&amp;lt;include&amp;gt;&amp;gt;" style="html=1;verticalAlign=bottom;labelBackgroundColor=none;endArrow=open;endFill=0;dashed=1;rounded=0;exitX=0.98;exitY=0.717;exitDx=0;exitDy=0;exitPerimeter=0;entryX=0.023;entryY=0.277;entryDx=0;entryDy=0;entryPerimeter=0;" parent="1" source="0xQP9pTzNDraxgmJn8Np-5" target="0xQP9pTzNDraxgmJn8Np-8" edge="1">
          <mxGeometry width="160" relative="1" as="geometry">
            <mxPoint x="1080" y="320" as="sourcePoint" />
            <mxPoint x="1240" y="320" as="targetPoint" />
          </mxGeometry>
        </mxCell>
        <mxCell id="-eSv9HdsOHbKA-0x51i8-1" style="rounded=0;orthogonalLoop=1;jettySize=auto;html=1;entryX=0.003;entryY=0.604;entryDx=0;entryDy=0;entryPerimeter=0;" parent="1" source="0xQP9pTzNDraxgmJn8Np-4" target="0xQP9pTzNDraxgmJn8Np-5" edge="1">
          <mxGeometry relative="1" as="geometry" />
        </mxCell>
        <mxCell id="VWKUZVT-WG4N3o4C1tBB-1" value="" style="swimlane;startSize=0;" parent="1" vertex="1">
          <mxGeometry x="900" y="100" width="420" height="310" as="geometry" />
        </mxCell>
      </root>
    </mxGraphModel>
  </diagram>
  <diagram id="LnMk1BERwVpOiv8qE5im" name="Inventory (Hàng tồn kho)">
    <mxGraphModel dx="576" dy="1877" grid="1" gridSize="10" guides="1" tooltips="1" connect="1" arrows="1" fold="1" page="1" pageScale="1" pageWidth="850" pageHeight="1100" math="0" shadow="0">
      <root>
        <mxCell id="0" />
        <mxCell id="1" parent="0" />
        <mxCell id="i41IcV5TvReCnBtebFM--11" style="rounded=0;orthogonalLoop=1;jettySize=auto;html=1;entryX=0;entryY=0.5;entryDx=0;entryDy=0;" parent="1" source="i41IcV5TvReCnBtebFM--2" target="i41IcV5TvReCnBtebFM--5" edge="1">
          <mxGeometry relative="1" as="geometry" />
        </mxCell>
        <mxCell id="i41IcV5TvReCnBtebFM--2" value="Admin" style="shape=umlActor;verticalLabelPosition=bottom;verticalAlign=top;html=1;outlineConnect=0;" parent="1" vertex="1">
          <mxGeometry x="940" y="250" width="30" height="60" as="geometry" />
        </mxCell>
        <mxCell id="i41IcV5TvReCnBtebFM--3" value="Quản lý kho" style="ellipse;whiteSpace=wrap;html=1;" parent="1" vertex="1">
          <mxGeometry x="1070" y="150" width="120" height="80" as="geometry" />
        </mxCell>
        <mxCell id="i41IcV5TvReCnBtebFM--5" value="Quản lý số lượng tồn kho" style="ellipse;whiteSpace=wrap;html=1;" parent="1" vertex="1">
          <mxGeometry x="1080" y="330" width="120" height="80" as="geometry" />
        </mxCell>
        <mxCell id="i41IcV5TvReCnBtebFM--6" value="Tạo kho mới&amp;nbsp;" style="ellipse;whiteSpace=wrap;html=1;" parent="1" vertex="1">
          <mxGeometry x="1330" y="-40" width="120" height="80" as="geometry" />
        </mxCell>
        <mxCell id="i41IcV5TvReCnBtebFM--7" value="Xem danh sách kho" style="ellipse;whiteSpace=wrap;html=1;" parent="1" vertex="1">
          <mxGeometry x="1330" y="60" width="120" height="80" as="geometry" />
        </mxCell>
        <mxCell id="i41IcV5TvReCnBtebFM--8" value="Cập nhật thông tin kho" style="ellipse;whiteSpace=wrap;html=1;" parent="1" vertex="1">
          <mxGeometry x="1330" y="160" width="120" height="80" as="geometry" />
        </mxCell>
        <mxCell id="i41IcV5TvReCnBtebFM--9" value="Xóa kho" style="ellipse;whiteSpace=wrap;html=1;" parent="1" vertex="1">
          <mxGeometry x="1330" y="260" width="120" height="80" as="geometry" />
        </mxCell>
        <mxCell id="i41IcV5TvReCnBtebFM--10" style="rounded=0;orthogonalLoop=1;jettySize=auto;html=1;entryX=0.017;entryY=0.613;entryDx=0;entryDy=0;entryPerimeter=0;" parent="1" source="i41IcV5TvReCnBtebFM--2" target="i41IcV5TvReCnBtebFM--3" edge="1">
          <mxGeometry relative="1" as="geometry" />
        </mxCell>
        <mxCell id="i41IcV5TvReCnBtebFM--12" value="&amp;lt;&amp;lt;include&amp;gt;&amp;gt;" style="html=1;verticalAlign=bottom;labelBackgroundColor=none;endArrow=open;endFill=0;dashed=1;rounded=0;entryX=0;entryY=0.5;entryDx=0;entryDy=0;exitX=0.95;exitY=0.213;exitDx=0;exitDy=0;exitPerimeter=0;" parent="1" source="i41IcV5TvReCnBtebFM--3" target="i41IcV5TvReCnBtebFM--6" edge="1">
          <mxGeometry width="160" relative="1" as="geometry">
            <mxPoint x="1210" y="140" as="sourcePoint" />
            <mxPoint x="1370" y="140" as="targetPoint" />
          </mxGeometry>
        </mxCell>
        <mxCell id="i41IcV5TvReCnBtebFM--13" value="&amp;lt;&amp;lt;include&amp;gt;&amp;gt;" style="html=1;verticalAlign=bottom;labelBackgroundColor=none;endArrow=open;endFill=0;dashed=1;rounded=0;exitX=1;exitY=0.338;exitDx=0;exitDy=0;exitPerimeter=0;entryX=0;entryY=0.5;entryDx=0;entryDy=0;" parent="1" source="i41IcV5TvReCnBtebFM--3" target="i41IcV5TvReCnBtebFM--7" edge="1">
          <mxGeometry width="160" relative="1" as="geometry">
            <mxPoint x="1230" y="130" as="sourcePoint" />
            <mxPoint x="1390" y="130" as="targetPoint" />
          </mxGeometry>
        </mxCell>
        <mxCell id="i41IcV5TvReCnBtebFM--14" value="&amp;lt;&amp;lt;include&amp;gt;&amp;gt;" style="html=1;verticalAlign=bottom;labelBackgroundColor=none;endArrow=open;endFill=0;dashed=1;rounded=0;exitX=1;exitY=0.5;exitDx=0;exitDy=0;entryX=0.063;entryY=0.273;entryDx=0;entryDy=0;entryPerimeter=0;" parent="1" source="i41IcV5TvReCnBtebFM--3" target="i41IcV5TvReCnBtebFM--8" edge="1">
          <mxGeometry width="160" relative="1" as="geometry">
            <mxPoint x="1200" y="170" as="sourcePoint" />
            <mxPoint x="1360" y="170" as="targetPoint" />
          </mxGeometry>
        </mxCell>
        <mxCell id="i41IcV5TvReCnBtebFM--15" value="&amp;lt;&amp;lt;include&amp;gt;&amp;gt;" style="html=1;verticalAlign=bottom;labelBackgroundColor=none;endArrow=open;endFill=0;dashed=1;rounded=0;exitX=0.977;exitY=0.693;exitDx=0;exitDy=0;exitPerimeter=0;entryX=0.02;entryY=0.378;entryDx=0;entryDy=0;entryPerimeter=0;" parent="1" source="i41IcV5TvReCnBtebFM--3" target="i41IcV5TvReCnBtebFM--9" edge="1">
          <mxGeometry width="160" relative="1" as="geometry">
            <mxPoint x="1200" y="210" as="sourcePoint" />
            <mxPoint x="1360" y="210" as="targetPoint" />
          </mxGeometry>
        </mxCell>
        <mxCell id="Du8z4X227Uw76PlEF5_q-1" value="" style="swimlane;startSize=0;" parent="1" vertex="1">
          <mxGeometry x="1030" y="-50" width="450" height="490" as="geometry" />
        </mxCell>
      </root>
    </mxGraphModel>
  </diagram>
  <diagram id="op5vTzsXhTKQ7ixt8WRS" name="Access Control (Kiểm soát truy cập)">
    <mxGraphModel dx="1426" dy="777" grid="1" gridSize="10" guides="1" tooltips="1" connect="1" arrows="1" fold="1" page="1" pageScale="1" pageWidth="850" pageHeight="1100" math="0" shadow="0">
      <root>
        <mxCell id="0" />
        <mxCell id="1" parent="0" />
        <mxCell id="fGcMY792QxbcWImLZBMf-3" style="edgeStyle=orthogonalEdgeStyle;rounded=0;orthogonalLoop=1;jettySize=auto;html=1;entryX=0;entryY=0.5;entryDx=0;entryDy=0;" parent="1" source="1ZHy9fWJpttHLvVU7sDr-2" target="fGcMY792QxbcWImLZBMf-1" edge="1">
          <mxGeometry relative="1" as="geometry" />
        </mxCell>
        <mxCell id="fGcMY792QxbcWImLZBMf-4" style="rounded=0;orthogonalLoop=1;jettySize=auto;html=1;entryX=0;entryY=0;entryDx=0;entryDy=0;" parent="1" source="1ZHy9fWJpttHLvVU7sDr-2" target="fGcMY792QxbcWImLZBMf-2" edge="1">
          <mxGeometry relative="1" as="geometry" />
        </mxCell>
        <mxCell id="1ZHy9fWJpttHLvVU7sDr-2" value="Người mua&amp;nbsp;" style="shape=umlActor;verticalLabelPosition=bottom;verticalAlign=top;html=1;outlineConnect=0;" parent="1" vertex="1">
          <mxGeometry x="840" y="80" width="30" height="60" as="geometry" />
        </mxCell>
        <mxCell id="fGcMY792QxbcWImLZBMf-6" style="rounded=0;orthogonalLoop=1;jettySize=auto;html=1;entryX=0;entryY=0.5;entryDx=0;entryDy=0;" parent="1" source="1ZHy9fWJpttHLvVU7sDr-3" target="fGcMY792QxbcWImLZBMf-2" edge="1">
          <mxGeometry relative="1" as="geometry" />
        </mxCell>
        <mxCell id="1ZHy9fWJpttHLvVU7sDr-3" value="Admin" style="shape=umlActor;verticalLabelPosition=bottom;verticalAlign=top;html=1;outlineConnect=0;" parent="1" vertex="1">
          <mxGeometry x="840" y="300" width="30" height="60" as="geometry" />
        </mxCell>
        <mxCell id="fGcMY792QxbcWImLZBMf-1" value="Đăng nhập vào hệ thống" style="ellipse;whiteSpace=wrap;html=1;" parent="1" vertex="1">
          <mxGeometry x="1060" y="70" width="120" height="80" as="geometry" />
        </mxCell>
        <mxCell id="fGcMY792QxbcWImLZBMf-2" value="Đăng xuất khỏi hệ thống" style="ellipse;whiteSpace=wrap;html=1;" parent="1" vertex="1">
          <mxGeometry x="1060" y="290" width="120" height="80" as="geometry" />
        </mxCell>
        <mxCell id="fGcMY792QxbcWImLZBMf-5" style="rounded=0;orthogonalLoop=1;jettySize=auto;html=1;entryX=0.031;entryY=0.676;entryDx=0;entryDy=0;entryPerimeter=0;" parent="1" source="1ZHy9fWJpttHLvVU7sDr-3" target="fGcMY792QxbcWImLZBMf-1" edge="1">
          <mxGeometry relative="1" as="geometry" />
        </mxCell>
        <mxCell id="WkmU_DAGtmTPCUQT_uIg-1" value="" style="swimlane;startSize=0;" parent="1" vertex="1">
          <mxGeometry x="930" y="60" width="290" height="330" as="geometry" />
        </mxCell>
      </root>
    </mxGraphModel>
  </diagram>
  <diagram id="qKRIRHfEj_7i11cemon6" name="Rating (Đánh giá)">
    <mxGraphModel grid="1" page="1" gridSize="10" guides="1" tooltips="1" connect="1" arrows="1" fold="1" pageScale="1" pageWidth="850" pageHeight="1100" math="0" shadow="0">
      <root>
        <mxCell id="0" />
        <mxCell id="1" parent="0" />
        <mxCell id="IndqOfM61kf0aZFVqHoY-5" style="rounded=0;orthogonalLoop=1;jettySize=auto;html=1;entryX=0;entryY=0.5;entryDx=0;entryDy=0;" edge="1" parent="1" source="IndqOfM61kf0aZFVqHoY-1" target="IndqOfM61kf0aZFVqHoY-3">
          <mxGeometry relative="1" as="geometry" />
        </mxCell>
        <mxCell id="IndqOfM61kf0aZFVqHoY-6" style="rounded=0;orthogonalLoop=1;jettySize=auto;html=1;entryX=0;entryY=0.5;entryDx=0;entryDy=0;" edge="1" parent="1" source="IndqOfM61kf0aZFVqHoY-1" target="IndqOfM61kf0aZFVqHoY-2">
          <mxGeometry relative="1" as="geometry" />
        </mxCell>
        <mxCell id="IndqOfM61kf0aZFVqHoY-1" value="Người mua" style="shape=umlActor;verticalLabelPosition=bottom;verticalAlign=top;html=1;outlineConnect=0;" vertex="1" parent="1">
          <mxGeometry x="220" y="170" width="30" height="60" as="geometry" />
        </mxCell>
        <mxCell id="IndqOfM61kf0aZFVqHoY-2" value="Xem đánh giá sản phẩm" style="ellipse;whiteSpace=wrap;html=1;" vertex="1" parent="1">
          <mxGeometry x="380" y="250" width="120" height="80" as="geometry" />
        </mxCell>
        <mxCell id="IndqOfM61kf0aZFVqHoY-3" value="Đánh giá sản phẩm" style="ellipse;whiteSpace=wrap;html=1;" vertex="1" parent="1">
          <mxGeometry x="380" y="90" width="120" height="80" as="geometry" />
        </mxCell>
        <mxCell id="jXE2IazkZr2amCGaLurt-1" value="" style="swimlane;startSize=0;" vertex="1" parent="1">
          <mxGeometry x="310" y="80" width="210" height="260" as="geometry" />
        </mxCell>
      </root>
    </mxGraphModel>
  </diagram>
  <diagram id="-4qYt5pm9irxhBiZ5l7T" name="ER (Enitity Relationship Diagram)">
    <mxGraphModel dx="1426" dy="777" grid="1" gridSize="10" guides="1" tooltips="1" connect="1" arrows="1" fold="1" page="1" pageScale="1" pageWidth="850" pageHeight="1100" math="0" shadow="0">
      <root>
        <mxCell id="0" />
        <mxCell id="1" parent="0" />
        <mxCell id="mYsMC1Pjed8ZB1lUj7Pq-9" style="rounded=0;orthogonalLoop=1;jettySize=auto;html=1;exitX=1;exitY=0.5;exitDx=0;exitDy=0;entryX=0;entryY=0.5;entryDx=0;entryDy=0;" parent="1" source="mYsMC1Pjed8ZB1lUj7Pq-1" target="mYsMC1Pjed8ZB1lUj7Pq-2" edge="1">
          <mxGeometry relative="1" as="geometry" />
        </mxCell>
        <mxCell id="mYsMC1Pjed8ZB1lUj7Pq-13" style="rounded=0;orthogonalLoop=1;jettySize=auto;html=1;exitX=1;exitY=0.75;exitDx=0;exitDy=0;entryX=0;entryY=0.5;entryDx=0;entryDy=0;" parent="1" source="mYsMC1Pjed8ZB1lUj7Pq-1" target="mYsMC1Pjed8ZB1lUj7Pq-8" edge="1">
          <mxGeometry relative="1" as="geometry" />
        </mxCell>
        <mxCell id="mYsMC1Pjed8ZB1lUj7Pq-1" value="User" style="rounded=1;arcSize=10;whiteSpace=wrap;html=1;align=center;" parent="1" vertex="1">
          <mxGeometry x="160" y="140" width="100" height="40" as="geometry" />
        </mxCell>
        <mxCell id="mYsMC1Pjed8ZB1lUj7Pq-10" style="rounded=0;orthogonalLoop=1;jettySize=auto;html=1;exitX=1;exitY=0.5;exitDx=0;exitDy=0;entryX=0;entryY=0.5;entryDx=0;entryDy=0;" parent="1" source="mYsMC1Pjed8ZB1lUj7Pq-2" target="mYsMC1Pjed8ZB1lUj7Pq-4" edge="1">
          <mxGeometry relative="1" as="geometry" />
        </mxCell>
        <mxCell id="mYsMC1Pjed8ZB1lUj7Pq-11" style="rounded=0;orthogonalLoop=1;jettySize=auto;html=1;exitX=1;exitY=0.25;exitDx=0;exitDy=0;entryX=0;entryY=0.5;entryDx=0;entryDy=0;" parent="1" source="mYsMC1Pjed8ZB1lUj7Pq-2" target="mYsMC1Pjed8ZB1lUj7Pq-3" edge="1">
          <mxGeometry relative="1" as="geometry" />
        </mxCell>
        <mxCell id="mYsMC1Pjed8ZB1lUj7Pq-2" value="Cart" style="rounded=1;arcSize=10;whiteSpace=wrap;html=1;align=center;" parent="1" vertex="1">
          <mxGeometry x="340" y="80" width="100" height="40" as="geometry" />
        </mxCell>
        <mxCell id="mYsMC1Pjed8ZB1lUj7Pq-12" style="rounded=0;orthogonalLoop=1;jettySize=auto;html=1;exitX=1;exitY=0.5;exitDx=0;exitDy=0;entryX=0;entryY=0.25;entryDx=0;entryDy=0;" parent="1" source="mYsMC1Pjed8ZB1lUj7Pq-3" target="mYsMC1Pjed8ZB1lUj7Pq-6" edge="1">
          <mxGeometry relative="1" as="geometry" />
        </mxCell>
        <mxCell id="mYsMC1Pjed8ZB1lUj7Pq-3" value="CartItem" style="rounded=1;arcSize=10;whiteSpace=wrap;html=1;align=center;" parent="1" vertex="1">
          <mxGeometry x="550" y="20" width="100" height="40" as="geometry" />
        </mxCell>
        <mxCell id="mYsMC1Pjed8ZB1lUj7Pq-4" value="Payment" style="rounded=1;arcSize=10;whiteSpace=wrap;html=1;align=center;" parent="1" vertex="1">
          <mxGeometry x="550" y="80" width="100" height="40" as="geometry" />
        </mxCell>
        <mxCell id="mYsMC1Pjed8ZB1lUj7Pq-15" style="rounded=0;orthogonalLoop=1;jettySize=auto;html=1;exitX=1;exitY=0.5;exitDx=0;exitDy=0;entryX=0;entryY=0.5;entryDx=0;entryDy=0;" parent="1" source="mYsMC1Pjed8ZB1lUj7Pq-6" target="mYsMC1Pjed8ZB1lUj7Pq-7" edge="1">
          <mxGeometry relative="1" as="geometry" />
        </mxCell>
        <mxCell id="mYsMC1Pjed8ZB1lUj7Pq-6" value="Product" style="rounded=1;arcSize=10;whiteSpace=wrap;html=1;align=center;" parent="1" vertex="1">
          <mxGeometry x="730" y="120" width="100" height="40" as="geometry" />
        </mxCell>
        <mxCell id="mYsMC1Pjed8ZB1lUj7Pq-7" value="Inventory" style="rounded=1;arcSize=10;whiteSpace=wrap;html=1;align=center;" parent="1" vertex="1">
          <mxGeometry x="940" y="120" width="100" height="40" as="geometry" />
        </mxCell>
        <mxCell id="mYsMC1Pjed8ZB1lUj7Pq-14" style="rounded=0;orthogonalLoop=1;jettySize=auto;html=1;exitX=1;exitY=0.5;exitDx=0;exitDy=0;entryX=0;entryY=0.75;entryDx=0;entryDy=0;" parent="1" source="mYsMC1Pjed8ZB1lUj7Pq-8" target="mYsMC1Pjed8ZB1lUj7Pq-6" edge="1">
          <mxGeometry relative="1" as="geometry" />
        </mxCell>
        <mxCell id="mYsMC1Pjed8ZB1lUj7Pq-8" value="Rating" style="rounded=1;arcSize=10;whiteSpace=wrap;html=1;align=center;" parent="1" vertex="1">
          <mxGeometry x="340" y="220" width="100" height="40" as="geometry" />
        </mxCell>
        <mxCell id="mYsMC1Pjed8ZB1lUj7Pq-16" value="1" style="text;html=1;align=center;verticalAlign=middle;resizable=0;points=[];autosize=1;strokeColor=none;fillColor=none;" parent="1" vertex="1">
          <mxGeometry x="255" y="125" width="30" height="30" as="geometry" />
        </mxCell>
        <mxCell id="mYsMC1Pjed8ZB1lUj7Pq-17" value="*" style="text;html=1;align=center;verticalAlign=middle;resizable=0;points=[];autosize=1;strokeColor=none;fillColor=none;" parent="1" vertex="1">
          <mxGeometry x="305" y="88" width="30" height="30" as="geometry" />
        </mxCell>
        <mxCell id="mYsMC1Pjed8ZB1lUj7Pq-18" value="1" style="text;html=1;align=center;verticalAlign=middle;resizable=0;points=[];autosize=1;strokeColor=none;fillColor=none;" parent="1" vertex="1">
          <mxGeometry x="255" y="178" width="30" height="30" as="geometry" />
        </mxCell>
        <mxCell id="mYsMC1Pjed8ZB1lUj7Pq-20" value="*" style="text;html=1;align=center;verticalAlign=middle;resizable=0;points=[];autosize=1;strokeColor=none;fillColor=none;" parent="1" vertex="1">
          <mxGeometry x="305" y="225" width="30" height="30" as="geometry" />
        </mxCell>
        <mxCell id="mYsMC1Pjed8ZB1lUj7Pq-21" value="1" style="text;html=1;align=center;verticalAlign=middle;resizable=0;points=[];autosize=1;strokeColor=none;fillColor=none;" parent="1" vertex="1">
          <mxGeometry x="435" y="58" width="30" height="30" as="geometry" />
        </mxCell>
        <mxCell id="mYsMC1Pjed8ZB1lUj7Pq-22" value="*" style="text;html=1;align=center;verticalAlign=middle;resizable=0;points=[];autosize=1;strokeColor=none;fillColor=none;" parent="1" vertex="1">
          <mxGeometry x="520" y="25" width="30" height="30" as="geometry" />
        </mxCell>
        <mxCell id="mYsMC1Pjed8ZB1lUj7Pq-23" value="1" style="text;html=1;align=center;verticalAlign=middle;resizable=0;points=[];autosize=1;strokeColor=none;fillColor=none;" parent="1" vertex="1">
          <mxGeometry x="435" y="95" width="30" height="30" as="geometry" />
        </mxCell>
        <mxCell id="mYsMC1Pjed8ZB1lUj7Pq-24" value="1" style="text;html=1;align=center;verticalAlign=middle;resizable=0;points=[];autosize=1;strokeColor=none;fillColor=none;" parent="1" vertex="1">
          <mxGeometry x="520" y="95" width="30" height="30" as="geometry" />
        </mxCell>
        <mxCell id="mYsMC1Pjed8ZB1lUj7Pq-25" value="*" style="text;html=1;align=center;verticalAlign=middle;resizable=0;points=[];autosize=1;strokeColor=none;fillColor=none;" parent="1" vertex="1">
          <mxGeometry x="655" y="28" width="30" height="30" as="geometry" />
        </mxCell>
        <mxCell id="mYsMC1Pjed8ZB1lUj7Pq-26" value="1" style="text;html=1;align=center;verticalAlign=middle;resizable=0;points=[];autosize=1;strokeColor=none;fillColor=none;" parent="1" vertex="1">
          <mxGeometry x="710" y="95" width="30" height="30" as="geometry" />
        </mxCell>
        <mxCell id="mYsMC1Pjed8ZB1lUj7Pq-27" value="1" style="text;html=1;align=center;verticalAlign=middle;resizable=0;points=[];autosize=1;strokeColor=none;fillColor=none;" parent="1" vertex="1">
          <mxGeometry x="830" y="118" width="30" height="30" as="geometry" />
        </mxCell>
        <mxCell id="mYsMC1Pjed8ZB1lUj7Pq-28" value="1" style="text;html=1;align=center;verticalAlign=middle;resizable=0;points=[];autosize=1;strokeColor=none;fillColor=none;" parent="1" vertex="1">
          <mxGeometry x="910" y="118" width="30" height="30" as="geometry" />
        </mxCell>
        <mxCell id="mYsMC1Pjed8ZB1lUj7Pq-29" value="*" style="text;html=1;align=center;verticalAlign=middle;resizable=0;points=[];autosize=1;strokeColor=none;fillColor=none;" parent="1" vertex="1">
          <mxGeometry x="435" y="208" width="30" height="30" as="geometry" />
        </mxCell>
        <mxCell id="mYsMC1Pjed8ZB1lUj7Pq-30" value="1" style="text;html=1;align=center;verticalAlign=middle;resizable=0;points=[];autosize=1;strokeColor=none;fillColor=none;" parent="1" vertex="1">
          <mxGeometry x="685" y="130" width="30" height="30" as="geometry" />
        </mxCell>
      </root>
    </mxGraphModel>
  </diagram>
</mxfile>
